<mxfile host="app.diagrams.net" modified="2022-03-02T15:00:56.005Z" agent="5.0 (Windows NT 10.0; Win64; x64) AppleWebKit/537.36 (KHTML, like Gecko) Chrome/97.0.4692.99 Safari/537.36 OPR/83.0.4254.46" etag="1YG94w_PM9Fq9qSrACgh" version="16.6.4" type="github">
  <diagram id="C5RBs43oDa-KdzZeNtuy" name="Page-1">
    <mxGraphModel dx="1308" dy="717" grid="1" gridSize="10" guides="1" tooltips="1" connect="1" arrows="1" fold="1" page="1" pageScale="1" pageWidth="827" pageHeight="1169" math="0" shadow="0">
      <root>
        <mxCell id="WIyWlLk6GJQsqaUBKTNV-0" />
        <mxCell id="WIyWlLk6GJQsqaUBKTNV-1" parent="WIyWlLk6GJQsqaUBKTNV-0" />
        <mxCell id="WIyWlLk6GJQsqaUBKTNV-4" value="Yes" style="rounded=0;html=1;jettySize=auto;orthogonalLoop=1;fontSize=11;endArrow=block;endFill=0;endSize=8;strokeWidth=1;shadow=0;labelBackgroundColor=none;edgeStyle=orthogonalEdgeStyle;" parent="WIyWlLk6GJQsqaUBKTNV-1" source="WIyWlLk6GJQsqaUBKTNV-6" target="WIyWlLk6GJQsqaUBKTNV-10" edge="1">
          <mxGeometry y="20" relative="1" as="geometry">
            <mxPoint as="offset" />
          </mxGeometry>
        </mxCell>
        <mxCell id="WIyWlLk6GJQsqaUBKTNV-5" value="No" style="edgeStyle=orthogonalEdgeStyle;rounded=0;html=1;jettySize=auto;orthogonalLoop=1;fontSize=11;endArrow=block;endFill=0;endSize=8;strokeWidth=1;shadow=0;labelBackgroundColor=none;" parent="WIyWlLk6GJQsqaUBKTNV-1" source="WIyWlLk6GJQsqaUBKTNV-6" edge="1">
          <mxGeometry y="10" relative="1" as="geometry">
            <mxPoint as="offset" />
            <mxPoint x="423" y="348" as="targetPoint" />
          </mxGeometry>
        </mxCell>
        <mxCell id="WIyWlLk6GJQsqaUBKTNV-6" value="Paquete existe?" style="rhombus;whiteSpace=wrap;html=1;shadow=0;fontFamily=Helvetica;fontSize=12;align=center;strokeWidth=1;spacing=6;spacingTop=-4;" parent="WIyWlLk6GJQsqaUBKTNV-1" vertex="1">
          <mxGeometry x="273" y="308" width="100" height="80" as="geometry" />
        </mxCell>
        <mxCell id="WIyWlLk6GJQsqaUBKTNV-8" value="No" style="rounded=0;html=1;jettySize=auto;orthogonalLoop=1;fontSize=11;endArrow=block;endFill=0;endSize=8;strokeWidth=1;shadow=0;labelBackgroundColor=none;edgeStyle=orthogonalEdgeStyle;" parent="WIyWlLk6GJQsqaUBKTNV-1" source="WIyWlLk6GJQsqaUBKTNV-10" edge="1">
          <mxGeometry x="-1" y="91" relative="1" as="geometry">
            <mxPoint x="-14" y="-48" as="offset" />
            <mxPoint x="323" y="568" as="targetPoint" />
          </mxGeometry>
        </mxCell>
        <mxCell id="WIyWlLk6GJQsqaUBKTNV-9" value="Yes" style="edgeStyle=orthogonalEdgeStyle;rounded=0;html=1;jettySize=auto;orthogonalLoop=1;fontSize=11;endArrow=block;endFill=0;endSize=8;strokeWidth=1;shadow=0;labelBackgroundColor=none;" parent="WIyWlLk6GJQsqaUBKTNV-1" source="WIyWlLk6GJQsqaUBKTNV-10" edge="1">
          <mxGeometry x="-1" y="-79" relative="1" as="geometry">
            <mxPoint x="-33" y="-7" as="offset" />
            <mxPoint x="423" y="468" as="targetPoint" />
          </mxGeometry>
        </mxCell>
        <mxCell id="WIyWlLk6GJQsqaUBKTNV-10" value="Tienen el mismo HubId?" style="rhombus;whiteSpace=wrap;html=1;shadow=0;fontFamily=Helvetica;fontSize=12;align=center;strokeWidth=1;spacing=6;spacingTop=-4;" parent="WIyWlLk6GJQsqaUBKTNV-1" vertex="1">
          <mxGeometry x="273" y="428" width="100" height="80" as="geometry" />
        </mxCell>
        <mxCell id="3QjOyAH6PIGKioun0KRv-3" style="edgeStyle=orthogonalEdgeStyle;rounded=0;orthogonalLoop=1;jettySize=auto;html=1;exitX=0.5;exitY=1;exitDx=0;exitDy=0;" edge="1" parent="WIyWlLk6GJQsqaUBKTNV-1" target="3QjOyAH6PIGKioun0KRv-2">
          <mxGeometry relative="1" as="geometry">
            <mxPoint x="323" y="120" as="sourcePoint" />
          </mxGeometry>
        </mxCell>
        <mxCell id="3QjOyAH6PIGKioun0KRv-7" style="edgeStyle=orthogonalEdgeStyle;rounded=0;orthogonalLoop=1;jettySize=auto;html=1;" edge="1" parent="WIyWlLk6GJQsqaUBKTNV-1" source="3QjOyAH6PIGKioun0KRv-2" target="WIyWlLk6GJQsqaUBKTNV-6">
          <mxGeometry relative="1" as="geometry" />
        </mxCell>
        <mxCell id="3QjOyAH6PIGKioun0KRv-2" value="Consulta de paquetes en bd" style="shape=process;whiteSpace=wrap;html=1;backgroundOutline=1;" vertex="1" parent="WIyWlLk6GJQsqaUBKTNV-1">
          <mxGeometry x="263" y="195" width="120" height="60" as="geometry" />
        </mxCell>
        <mxCell id="3QjOyAH6PIGKioun0KRv-4" value="CreateOrdenConsolidacionViewModel" style="text;html=1;align=center;verticalAlign=middle;resizable=0;points=[];autosize=1;strokeColor=none;fillColor=none;" vertex="1" parent="WIyWlLk6GJQsqaUBKTNV-1">
          <mxGeometry x="330" y="140" width="220" height="20" as="geometry" />
        </mxCell>
        <mxCell id="3QjOyAH6PIGKioun0KRv-11" style="edgeStyle=orthogonalEdgeStyle;rounded=0;orthogonalLoop=1;jettySize=auto;html=1;exitX=1;exitY=0.5;exitDx=0;exitDy=0;" edge="1" parent="WIyWlLk6GJQsqaUBKTNV-1" source="3QjOyAH6PIGKioun0KRv-8">
          <mxGeometry relative="1" as="geometry">
            <mxPoint x="426" y="610" as="targetPoint" />
          </mxGeometry>
        </mxCell>
        <mxCell id="3QjOyAH6PIGKioun0KRv-12" style="edgeStyle=orthogonalEdgeStyle;rounded=0;orthogonalLoop=1;jettySize=auto;html=1;exitX=0.5;exitY=1;exitDx=0;exitDy=0;entryX=0.5;entryY=0;entryDx=0;entryDy=0;" edge="1" parent="WIyWlLk6GJQsqaUBKTNV-1" source="3QjOyAH6PIGKioun0KRv-8" target="3QjOyAH6PIGKioun0KRv-10">
          <mxGeometry relative="1" as="geometry" />
        </mxCell>
        <mxCell id="3QjOyAH6PIGKioun0KRv-8" value="TrackingName == BLQ" style="rhombus;whiteSpace=wrap;html=1;" vertex="1" parent="WIyWlLk6GJQsqaUBKTNV-1">
          <mxGeometry x="274.5" y="570" width="97" height="80" as="geometry" />
        </mxCell>
        <mxCell id="3QjOyAH6PIGKioun0KRv-17" style="edgeStyle=orthogonalEdgeStyle;rounded=0;orthogonalLoop=1;jettySize=auto;html=1;exitX=1;exitY=0.5;exitDx=0;exitDy=0;entryX=0;entryY=0.5;entryDx=0;entryDy=0;" edge="1" parent="WIyWlLk6GJQsqaUBKTNV-1" source="3QjOyAH6PIGKioun0KRv-10">
          <mxGeometry relative="1" as="geometry">
            <mxPoint x="426" y="750" as="targetPoint" />
          </mxGeometry>
        </mxCell>
        <mxCell id="3QjOyAH6PIGKioun0KRv-20" style="edgeStyle=orthogonalEdgeStyle;rounded=0;orthogonalLoop=1;jettySize=auto;html=1;exitX=0.5;exitY=1;exitDx=0;exitDy=0;" edge="1" parent="WIyWlLk6GJQsqaUBKTNV-1" source="3QjOyAH6PIGKioun0KRv-10">
          <mxGeometry relative="1" as="geometry">
            <mxPoint x="323" y="870" as="targetPoint" />
          </mxGeometry>
        </mxCell>
        <mxCell id="3QjOyAH6PIGKioun0KRv-21" style="edgeStyle=orthogonalEdgeStyle;rounded=0;orthogonalLoop=1;jettySize=auto;html=1;exitX=0;exitY=0.5;exitDx=0;exitDy=0;entryX=0;entryY=0.5;entryDx=0;entryDy=0;" edge="1" parent="WIyWlLk6GJQsqaUBKTNV-1" source="3QjOyAH6PIGKioun0KRv-10" target="WIyWlLk6GJQsqaUBKTNV-6">
          <mxGeometry relative="1" as="geometry">
            <Array as="points">
              <mxPoint x="90" y="750" />
              <mxPoint x="90" y="348" />
            </Array>
          </mxGeometry>
        </mxCell>
        <mxCell id="3QjOyAH6PIGKioun0KRv-10" value="OrdenConsolidacionId == null" style="rhombus;whiteSpace=wrap;html=1;shadow=0;fontFamily=Helvetica;fontSize=12;align=center;strokeWidth=1;spacing=6;spacingTop=-4;" vertex="1" parent="WIyWlLk6GJQsqaUBKTNV-1">
          <mxGeometry x="273" y="710" width="100" height="80" as="geometry" />
        </mxCell>
        <mxCell id="3QjOyAH6PIGKioun0KRv-14" value="Yes" style="text;html=1;align=center;verticalAlign=middle;resizable=0;points=[];autosize=1;strokeColor=none;fillColor=none;" vertex="1" parent="WIyWlLk6GJQsqaUBKTNV-1">
          <mxGeometry x="330" y="680" width="30" height="20" as="geometry" />
        </mxCell>
        <mxCell id="3QjOyAH6PIGKioun0KRv-18" value="No" style="text;html=1;align=center;verticalAlign=middle;resizable=0;points=[];autosize=1;strokeColor=none;fillColor=none;" vertex="1" parent="WIyWlLk6GJQsqaUBKTNV-1">
          <mxGeometry x="385" y="720" width="30" height="20" as="geometry" />
        </mxCell>
        <mxCell id="3QjOyAH6PIGKioun0KRv-19" value="No" style="text;html=1;align=center;verticalAlign=middle;resizable=0;points=[];autosize=1;strokeColor=none;fillColor=none;" vertex="1" parent="WIyWlLk6GJQsqaUBKTNV-1">
          <mxGeometry x="385" y="590" width="30" height="20" as="geometry" />
        </mxCell>
        <mxCell id="3QjOyAH6PIGKioun0KRv-33" style="edgeStyle=orthogonalEdgeStyle;rounded=0;orthogonalLoop=1;jettySize=auto;html=1;exitX=0.5;exitY=1;exitDx=0;exitDy=0;" edge="1" parent="WIyWlLk6GJQsqaUBKTNV-1" source="3QjOyAH6PIGKioun0KRv-27">
          <mxGeometry relative="1" as="geometry">
            <mxPoint x="323" y="1030" as="targetPoint" />
          </mxGeometry>
        </mxCell>
        <mxCell id="3QjOyAH6PIGKioun0KRv-36" style="edgeStyle=orthogonalEdgeStyle;rounded=0;orthogonalLoop=1;jettySize=auto;html=1;exitX=1;exitY=0.5;exitDx=0;exitDy=0;entryX=0;entryY=0.5;entryDx=0;entryDy=0;" edge="1" parent="WIyWlLk6GJQsqaUBKTNV-1" source="3QjOyAH6PIGKioun0KRv-27" target="3QjOyAH6PIGKioun0KRv-35">
          <mxGeometry relative="1" as="geometry" />
        </mxCell>
        <mxCell id="3QjOyAH6PIGKioun0KRv-27" value="ArchivoFactura == null" style="rhombus;whiteSpace=wrap;html=1;" vertex="1" parent="WIyWlLk6GJQsqaUBKTNV-1">
          <mxGeometry x="254.5" y="870" width="137" height="100" as="geometry" />
        </mxCell>
        <mxCell id="3QjOyAH6PIGKioun0KRv-28" value="&lt;h1&gt;CreateOrdenConsolidacionVm&lt;/h1&gt;&lt;p&gt;&amp;nbsp; &amp;nbsp; &amp;nbsp; &amp;nbsp; [Required]&lt;/p&gt;&lt;p&gt;&amp;nbsp; &amp;nbsp; &amp;nbsp; &amp;nbsp; public string GuiasHijas { get; set; }&lt;/p&gt;&lt;p&gt;&amp;nbsp; &amp;nbsp; &amp;nbsp; &amp;nbsp; [Required]&lt;/p&gt;&lt;p&gt;&amp;nbsp; &amp;nbsp; &amp;nbsp; &amp;nbsp; public decimal ValorDeclarado { get; set; }&lt;/p&gt;&lt;p&gt;&amp;nbsp; &amp;nbsp; &amp;nbsp; &amp;nbsp; [Required]&lt;/p&gt;&lt;p&gt;&amp;nbsp; &amp;nbsp; &amp;nbsp; &amp;nbsp; public string Descripcion { get; set; }&lt;/p&gt;&lt;p&gt;&amp;nbsp; &amp;nbsp; &amp;nbsp; &amp;nbsp; public string UrlFactura { get; set; }&lt;/p&gt;&lt;p&gt;&amp;nbsp; &amp;nbsp; &amp;nbsp; &amp;nbsp; public IFormFile ArchivoFactura { get; set; }&lt;/p&gt;&lt;p&gt;&amp;nbsp; &amp;nbsp; &amp;nbsp; &amp;nbsp; public string Observacion { get; set; }&lt;/p&gt;" style="text;html=1;strokeColor=#d6b656;fillColor=#fff2cc;spacing=5;spacingTop=-20;whiteSpace=wrap;overflow=hidden;rounded=0;" vertex="1" parent="WIyWlLk6GJQsqaUBKTNV-1">
          <mxGeometry x="827" y="60" width="363" height="290" as="geometry" />
        </mxCell>
        <mxCell id="3QjOyAH6PIGKioun0KRv-30" value="GuiasHijas" style="text;html=1;align=center;verticalAlign=middle;resizable=0;points=[];autosize=1;strokeColor=none;fillColor=none;" vertex="1" parent="WIyWlLk6GJQsqaUBKTNV-1">
          <mxGeometry x="330" y="270" width="70" height="20" as="geometry" />
        </mxCell>
        <mxCell id="3QjOyAH6PIGKioun0KRv-31" value="Inicio" style="rounded=1;whiteSpace=wrap;html=1;" vertex="1" parent="WIyWlLk6GJQsqaUBKTNV-1">
          <mxGeometry x="265" y="60" width="120" height="60" as="geometry" />
        </mxCell>
        <mxCell id="3QjOyAH6PIGKioun0KRv-32" value="Yes" style="text;html=1;align=center;verticalAlign=middle;resizable=0;points=[];autosize=1;strokeColor=none;fillColor=none;" vertex="1" parent="WIyWlLk6GJQsqaUBKTNV-1">
          <mxGeometry x="330" y="840" width="30" height="20" as="geometry" />
        </mxCell>
        <mxCell id="3QjOyAH6PIGKioun0KRv-39" style="edgeStyle=orthogonalEdgeStyle;rounded=0;orthogonalLoop=1;jettySize=auto;html=1;exitX=1;exitY=0.5;exitDx=0;exitDy=0;entryX=0.5;entryY=0;entryDx=0;entryDy=0;" edge="1" parent="WIyWlLk6GJQsqaUBKTNV-1" source="3QjOyAH6PIGKioun0KRv-35" target="3QjOyAH6PIGKioun0KRv-38">
          <mxGeometry relative="1" as="geometry" />
        </mxCell>
        <mxCell id="3QjOyAH6PIGKioun0KRv-35" value="Cargar archivo en blobStorage" style="shape=process;whiteSpace=wrap;html=1;backgroundOutline=1;" vertex="1" parent="WIyWlLk6GJQsqaUBKTNV-1">
          <mxGeometry x="480" y="890" width="120" height="60" as="geometry" />
        </mxCell>
        <mxCell id="3QjOyAH6PIGKioun0KRv-37" value="No" style="text;html=1;align=center;verticalAlign=middle;resizable=0;points=[];autosize=1;strokeColor=none;fillColor=none;" vertex="1" parent="WIyWlLk6GJQsqaUBKTNV-1">
          <mxGeometry x="415" y="890" width="30" height="20" as="geometry" />
        </mxCell>
        <mxCell id="3QjOyAH6PIGKioun0KRv-46" style="edgeStyle=orthogonalEdgeStyle;rounded=0;orthogonalLoop=1;jettySize=auto;html=1;exitX=0.5;exitY=1;exitDx=0;exitDy=0;entryX=0.5;entryY=0;entryDx=0;entryDy=0;" edge="1" parent="WIyWlLk6GJQsqaUBKTNV-1" source="3QjOyAH6PIGKioun0KRv-38" target="3QjOyAH6PIGKioun0KRv-45">
          <mxGeometry relative="1" as="geometry" />
        </mxCell>
        <mxCell id="3QjOyAH6PIGKioun0KRv-38" value="Crear nueva OrdenConsolidacion en bd" style="shape=process;whiteSpace=wrap;html=1;backgroundOutline=1;" vertex="1" parent="WIyWlLk6GJQsqaUBKTNV-1">
          <mxGeometry x="250.5" y="1030" width="145" height="60" as="geometry" />
        </mxCell>
        <mxCell id="3QjOyAH6PIGKioun0KRv-43" style="edgeStyle=orthogonalEdgeStyle;rounded=0;orthogonalLoop=1;jettySize=auto;html=1;exitX=0.5;exitY=1;exitDx=0;exitDy=0;" edge="1" parent="WIyWlLk6GJQsqaUBKTNV-1" source="3QjOyAH6PIGKioun0KRv-40" target="3QjOyAH6PIGKioun0KRv-41">
          <mxGeometry relative="1" as="geometry" />
        </mxCell>
        <mxCell id="3QjOyAH6PIGKioun0KRv-40" value="AdicionaEstado CLS" style="shape=process;whiteSpace=wrap;html=1;backgroundOutline=1;" vertex="1" parent="WIyWlLk6GJQsqaUBKTNV-1">
          <mxGeometry x="255.5" y="1247" width="135" height="60" as="geometry" />
        </mxCell>
        <mxCell id="3QjOyAH6PIGKioun0KRv-44" style="edgeStyle=orthogonalEdgeStyle;rounded=0;orthogonalLoop=1;jettySize=auto;html=1;exitX=0;exitY=0.5;exitDx=0;exitDy=0;entryX=0;entryY=0.5;entryDx=0;entryDy=0;" edge="1" parent="WIyWlLk6GJQsqaUBKTNV-1" source="3QjOyAH6PIGKioun0KRv-41" target="3QjOyAH6PIGKioun0KRv-40">
          <mxGeometry relative="1" as="geometry" />
        </mxCell>
        <mxCell id="3QjOyAH6PIGKioun0KRv-50" style="edgeStyle=orthogonalEdgeStyle;rounded=0;orthogonalLoop=1;jettySize=auto;html=1;exitX=1;exitY=0.5;exitDx=0;exitDy=0;entryX=0;entryY=0.5;entryDx=0;entryDy=0;" edge="1" parent="WIyWlLk6GJQsqaUBKTNV-1" source="3QjOyAH6PIGKioun0KRv-41">
          <mxGeometry relative="1" as="geometry">
            <mxPoint x="570" y="1397" as="targetPoint" />
          </mxGeometry>
        </mxCell>
        <mxCell id="3QjOyAH6PIGKioun0KRv-41" value="Actualiza OrdenConsolidacionId x paquete" style="shape=process;whiteSpace=wrap;html=1;backgroundOutline=1;" vertex="1" parent="WIyWlLk6GJQsqaUBKTNV-1">
          <mxGeometry x="240.25" y="1367" width="165.5" height="60" as="geometry" />
        </mxCell>
        <mxCell id="3QjOyAH6PIGKioun0KRv-47" style="edgeStyle=orthogonalEdgeStyle;rounded=0;orthogonalLoop=1;jettySize=auto;html=1;exitX=0.5;exitY=1;exitDx=0;exitDy=0;entryX=0.5;entryY=0;entryDx=0;entryDy=0;" edge="1" parent="WIyWlLk6GJQsqaUBKTNV-1" source="3QjOyAH6PIGKioun0KRv-45" target="3QjOyAH6PIGKioun0KRv-40">
          <mxGeometry relative="1" as="geometry" />
        </mxCell>
        <mxCell id="3QjOyAH6PIGKioun0KRv-45" value="Consulta de paquetes en bd" style="shape=process;whiteSpace=wrap;html=1;backgroundOutline=1;" vertex="1" parent="WIyWlLk6GJQsqaUBKTNV-1">
          <mxGeometry x="263" y="1140" width="120" height="60" as="geometry" />
        </mxCell>
        <mxCell id="3QjOyAH6PIGKioun0KRv-48" value="listapaquetes, OrdenConsolidacionId" style="text;html=1;align=center;verticalAlign=middle;resizable=0;points=[];autosize=1;strokeColor=none;fillColor=none;" vertex="1" parent="WIyWlLk6GJQsqaUBKTNV-1">
          <mxGeometry x="240.25" y="1210" width="210" height="20" as="geometry" />
        </mxCell>
        <mxCell id="3QjOyAH6PIGKioun0KRv-58" style="edgeStyle=orthogonalEdgeStyle;rounded=0;orthogonalLoop=1;jettySize=auto;html=1;exitX=1;exitY=0.25;exitDx=0;exitDy=0;entryX=0;entryY=0.5;entryDx=0;entryDy=0;" edge="1" parent="WIyWlLk6GJQsqaUBKTNV-1" source="3QjOyAH6PIGKioun0KRv-53" target="3QjOyAH6PIGKioun0KRv-57">
          <mxGeometry relative="1" as="geometry" />
        </mxCell>
        <mxCell id="3QjOyAH6PIGKioun0KRv-53" value="&quot;El paquete no existe&quot;" style="shape=document;whiteSpace=wrap;html=1;boundedLbl=1;fillColor=#f8cecc;strokeColor=#b85450;" vertex="1" parent="WIyWlLk6GJQsqaUBKTNV-1">
          <mxGeometry x="423" y="320" width="120" height="80" as="geometry" />
        </mxCell>
        <mxCell id="3QjOyAH6PIGKioun0KRv-59" style="edgeStyle=orthogonalEdgeStyle;rounded=0;orthogonalLoop=1;jettySize=auto;html=1;exitX=1;exitY=0.25;exitDx=0;exitDy=0;entryX=0;entryY=0.5;entryDx=0;entryDy=0;" edge="1" parent="WIyWlLk6GJQsqaUBKTNV-1" source="3QjOyAH6PIGKioun0KRv-54" target="3QjOyAH6PIGKioun0KRv-57">
          <mxGeometry relative="1" as="geometry" />
        </mxCell>
        <mxCell id="3QjOyAH6PIGKioun0KRv-54" value="&quot;El paquete pertenece a otro Hub&quot;" style="shape=document;whiteSpace=wrap;html=1;boundedLbl=1;fillColor=#f8cecc;strokeColor=#b85450;" vertex="1" parent="WIyWlLk6GJQsqaUBKTNV-1">
          <mxGeometry x="423" y="440" width="120" height="80" as="geometry" />
        </mxCell>
        <mxCell id="3QjOyAH6PIGKioun0KRv-60" style="edgeStyle=orthogonalEdgeStyle;rounded=0;orthogonalLoop=1;jettySize=auto;html=1;exitX=1;exitY=0.5;exitDx=0;exitDy=0;entryX=0;entryY=0.5;entryDx=0;entryDy=0;" edge="1" parent="WIyWlLk6GJQsqaUBKTNV-1" source="3QjOyAH6PIGKioun0KRv-55" target="3QjOyAH6PIGKioun0KRv-57">
          <mxGeometry relative="1" as="geometry" />
        </mxCell>
        <mxCell id="3QjOyAH6PIGKioun0KRv-55" value="&quot;El paquete no cumple con el estado BLG&quot;" style="shape=document;whiteSpace=wrap;html=1;boundedLbl=1;fillColor=#f8cecc;strokeColor=#b85450;" vertex="1" parent="WIyWlLk6GJQsqaUBKTNV-1">
          <mxGeometry x="424.5" y="580" width="120" height="80" as="geometry" />
        </mxCell>
        <mxCell id="3QjOyAH6PIGKioun0KRv-61" style="edgeStyle=orthogonalEdgeStyle;rounded=0;orthogonalLoop=1;jettySize=auto;html=1;" edge="1" parent="WIyWlLk6GJQsqaUBKTNV-1" source="3QjOyAH6PIGKioun0KRv-56">
          <mxGeometry relative="1" as="geometry">
            <mxPoint x="880" y="720" as="targetPoint" />
          </mxGeometry>
        </mxCell>
        <mxCell id="3QjOyAH6PIGKioun0KRv-56" value="&quot;El paquete ya se encuentra consolidado&quot;" style="shape=document;whiteSpace=wrap;html=1;boundedLbl=1;fillColor=#f8cecc;strokeColor=#b85450;" vertex="1" parent="WIyWlLk6GJQsqaUBKTNV-1">
          <mxGeometry x="423" y="710" width="120" height="80" as="geometry" />
        </mxCell>
        <mxCell id="3QjOyAH6PIGKioun0KRv-57" value="Fin" style="rounded=1;whiteSpace=wrap;html=1;" vertex="1" parent="WIyWlLk6GJQsqaUBKTNV-1">
          <mxGeometry x="880" y="690" width="120" height="60" as="geometry" />
        </mxCell>
        <mxCell id="3QjOyAH6PIGKioun0KRv-63" style="edgeStyle=orthogonalEdgeStyle;rounded=0;orthogonalLoop=1;jettySize=auto;html=1;exitX=1;exitY=0.5;exitDx=0;exitDy=0;entryX=0.5;entryY=1;entryDx=0;entryDy=0;" edge="1" parent="WIyWlLk6GJQsqaUBKTNV-1" source="3QjOyAH6PIGKioun0KRv-62" target="3QjOyAH6PIGKioun0KRv-57">
          <mxGeometry relative="1" as="geometry" />
        </mxCell>
        <mxCell id="3QjOyAH6PIGKioun0KRv-62" value="&quot;Exito, Numero de consolidadoId&quot;" style="shape=document;whiteSpace=wrap;html=1;boundedLbl=1;fillColor=#d5e8d4;strokeColor=#82b366;" vertex="1" parent="WIyWlLk6GJQsqaUBKTNV-1">
          <mxGeometry x="570" y="1357" width="120" height="80" as="geometry" />
        </mxCell>
      </root>
    </mxGraphModel>
  </diagram>
</mxfile>
